<svg xmlns="http://www.w3.org/2000/svg" width="1200" height="600" viewBox="0 0 1200 600" role="img" aria-label="Araþ fotoraf1 yok">
  <defs>
    <linearGradient id="bg" x1="0" y1="0" x2="1" y2="1">
      <stop offset="0" stop-color="#001489" stop-opacity="0.08"/>
      <stop offset="1" stop-color="#fe5000" stop-opacity="0.10"/>
    </linearGradient>
    <filter id="shadow" x="-20%" y="-20%" width="140%" height="140%">
      <feDropShadow dx="0" dy="8" stdDeviation="12" flood-color="#001489" flood-opacity="0.18"/>
    </filter>
  </defs>
  <rect width="1200" height="600" fill="url(#bg)"/>
  <g filter="url(#shadow)">
    <rect x="120" y="140" width="960" height="320" rx="24" fill="#ffffff" stroke="#001489" stroke-opacity="0.2"/>
    <g transform="translate(220,210)">
      <path d="M120 160c0-18 14-32 32-32h496c18 0 32 14 32 32v40c0 22-18 40-40 40H160c-22 0-40-18-40-40v-40z" fill="#001489" fill-opacity="0.10"/>
      <path d="M200 120l40-72c10-18 28-28 48-28h200c20 0 38 10 48 28l40 72" fill="none" stroke="#001489" stroke-opacity="0.35" stroke-width="14" stroke-linecap="round"/>
      <circle cx="220" cy="220" r="42" fill="#fe5000" fill-opacity="0.14" stroke="#fe5000" stroke-opacity="0.35" stroke-width="10"/>
      <circle cx="580" cy="220" r="42" fill="#fe5000" fill-opacity="0.14" stroke="#fe5000" stroke-opacity="0.35" stroke-width="10"/>
      <rect x="290" y="64" width="180" height="54" rx="10" fill="#001489" fill-opacity="0.08" stroke="#001489" stroke-opacity="0.18"/>
      <path d="M120 160h560" stroke="#001489" stroke-opacity="0.18" stroke-width="10" stroke-linecap="round"/>
    </g>
    <text x="600" y="420" text-anchor="middle" font-family="Segoe UI, Tahoma, Geneva, Verdana, sans-serif" font-size="34" fill="#001489" fill-opacity="0.85">
      Fotoraf yok
    </text>
  </g>
</svg>
